<?xml version="1.0" encoding="UTF-8" standalone="no" ?>
<!DOCTYPE svg PUBLIC "-//W3C//DTD SVG 1.1//EN" "http://www.w3.org/Graphics/SVG/1.1/DTD/svg11.dtd">
<svg xmlns="http://www.w3.org/2000/svg" xmlns:xlink="http://www.w3.org/1999/xlink" version="1.1" width="70" height="40" viewBox="0 0 70 40" xml:space="preserve">
<desc>Created with Fabric.js 4.6.0</desc>
<defs>
</defs>
<g transform="matrix(0 0.97 -0.97 0 35 20)" id="EzKa8t0AHdXqX0u6AX4ae"  >
<g style="" vector-effect="non-scaling-stroke"   >
		<g transform="matrix(1 0 0 1 0 18.95)" id="hCqTOiVGQRZdK2kmS5M-Y"  >
<path style="stroke: none; stroke-width: 1; stroke-dasharray: none; stroke-linecap: butt; stroke-dashoffset: 0; stroke-linejoin: miter; stroke-miterlimit: 4; fill: rgb(255,0,0); fill-rule: nonzero; opacity: 1;" vector-effect="non-scaling-stroke"  transform=" translate(-49, -68.95)" d="M 49 68.2 C 57 68.2 64.1 73.9 67.9 82.4 C 68.7 80.2 69.2 77.9 69.2 75.5 C 69.2 64.4 60.2 55.5 49 55.5 C 37.8 55.5 28.8 64.5 28.8 75.5 C 28.8 77.9 29.3 80.3 30.1 82.4 C 33.9 73.9 41 68.2 49 68.2 z" stroke-linecap="round" />
</g>
		<g transform="matrix(1 0 0 1 0 21.6)" id="bZY8YKPgf8-swf30s3xyJ"  >
<path style="stroke: none; stroke-width: 1; stroke-dasharray: none; stroke-linecap: butt; stroke-dashoffset: 0; stroke-linejoin: miter; stroke-miterlimit: 4; fill: rgb(38,131,234); fill-rule: nonzero; opacity: 1;" vector-effect="non-scaling-stroke"  transform=" translate(-6.1, -2.1)" d="M 0 4.2 L 0 0 L 12.2 0 L 12.2 4.2 z" stroke-linecap="round" />
</g>
		<g transform="matrix(1 0 0 1 -0.01 26.51)" id="Zi2sAohBYCpbYnb7MHx2i"  >
<path style="stroke: none; stroke-width: 1; stroke-dasharray: none; stroke-linecap: butt; stroke-dashoffset: 0; stroke-linejoin: miter; stroke-miterlimit: 4; fill: rgb(232,171,46); fill-rule: nonzero; opacity: 1;" vector-effect="non-scaling-stroke"  transform=" translate(-48.99, -76.51)" d="M 53.1 77.1 C 52.5 79.69999999999999 49 85.39999999999999 49 85.39999999999999 C 49 85.39999999999999 45.5 79.8 44.9 77.1 C 44.3 74.3 44.8 71.69999999999999 46.199999999999996 70.39999999999999 C 47.49999999999999 68.99999999999999 48.99999999999999 67.19999999999999 48.99999999999999 67.69999999999999 C 48.99999999999999 67.19999999999999 50.49999999999999 68.99999999999999 51.79999999999999 70.39999999999999 C 53.1 71.7 53.7 74.3 53.1 77.1 z" stroke-linecap="round" />
</g>
		<g transform="matrix(1 0 0 1 0 26.48)" id="9cRyv_ehMi9Ut6CBk-1YU"  >
<path style="stroke: none; stroke-width: 1; stroke-dasharray: none; stroke-linecap: butt; stroke-dashoffset: 0; stroke-linejoin: miter; stroke-miterlimit: 4; fill: rgb(255,0,0); fill-rule: nonzero; opacity: 1;" vector-effect="non-scaling-stroke"  transform=" translate(-49, -76.48)" d="M 50.5 76.9 C 50.3 78.60000000000001 49 82.30000000000001 49 82.30000000000001 C 49 82.30000000000001 47.7 78.60000000000001 47.5 76.9 C 47.3 75.10000000000001 47.5 73.4 48 72.5 C 48.5 71.6 49 70.4 49 70.7 C 49 70.4 49.6 71.60000000000001 50 72.5 C 50.5 73.4 50.7 75 50.5 76.9 z" stroke-linecap="round" />
</g>
		<g transform="matrix(1 0 0 1 0 -6.6)" id="2FRwNcu4q_A6q0ciGGGKE"  >
<path style="stroke: none; stroke-width: 1; stroke-dasharray: none; stroke-linecap: butt; stroke-dashoffset: 0; stroke-linejoin: miter; stroke-miterlimit: 4; fill: rgb(193,193,193); fill-rule: nonzero; opacity: 1;" vector-effect="non-scaling-stroke"  transform=" translate(-49, -43.4)" d="M 58.5 28.5 C 56.1 22.6 49 14.6 49 14.6 L 49 14.6 C 49 14.6 41.9 22.6 39.5 28.5 C 37 34.4 33.7 51 42.3 72.2 L 49 72.2 L 49 72.2 L 55.7 72.2 C 64.3 51 61 34.4 58.5 28.5 z" stroke-linecap="round" />
</g>
		<g transform="matrix(1 0 0 1 0 -27.2)" id="WKYV3V7HR95MQT2TDPlD4"  >
<path style="stroke: none; stroke-width: 1; stroke-dasharray: none; stroke-linecap: butt; stroke-dashoffset: 0; stroke-linejoin: miter; stroke-miterlimit: 4; fill: rgb(41,72,98); fill-rule: nonzero; opacity: 1;" vector-effect="non-scaling-stroke"  transform=" translate(-49, -22.8)" d="M 59.4 31 C 57.199999999999996 30.5 53.4 30.1 49 30.1 C 44.6 30.1 40.8 30.5 38.6 31 C 38.9 30 39.2 29.2 39.5 28.5 C 41.9 22.7 49 14.6 49 14.6 L 49 14.6 C 49 14.6 56 22.6 58.5 28.5 C 58.8 29.2 59.1 30 59.4 31 z" stroke-linecap="round" />
</g>
		<g transform="matrix(1 0 0 1 0 -20.85)" id="mn8y18kHSCXWLmH0H5tGj"  >
<path style="stroke: none; stroke-width: 1; stroke-dasharray: none; stroke-linecap: butt; stroke-dashoffset: 0; stroke-linejoin: miter; stroke-miterlimit: 4; fill: rgb(255,0,0); fill-rule: nonzero; opacity: 1;" vector-effect="non-scaling-stroke"  transform=" translate(-49, -29.15)" d="M 59.4 31 C 57.199999999999996 30.5 53.4 30.1 49 30.1 C 44.6 30.1 40.8 30.5 38.6 31 C 38.9 30.1 39.1 29.4 39.4 28.7 C 41.6 27.8 45.1 27.3 49 27.3 C 52.9 27.3 56.3 27.8 58.6 28.7 C 58.9 29.4 59.1 30.1 59.4 31 z" stroke-linecap="round" />
</g>
		<g transform="matrix(1 0 0 1 0 16.7)" id="vf0fNAxgasCUYtI5_ZqDP"  >
<path style="stroke: none; stroke-width: 1; stroke-dasharray: none; stroke-linecap: butt; stroke-dashoffset: 0; stroke-linejoin: miter; stroke-miterlimit: 4; fill: rgb(41,72,98); fill-rule: nonzero; opacity: 1;" vector-effect="non-scaling-stroke"  transform=" translate(-1.6, -9.4)" d="M 0 9.4 C 0 4.20852 0.71634 0 1.6 0 C 2.48366 0 3.2 4.20852 3.2 9.4 C 3.2 14.59148 2.4836600000000004 18.8 1.6 18.8 C 0.7163400000000001 18.8 0 14.59148 0 9.4 z" stroke-linecap="round" />
</g>
		<g transform="matrix(1 0 0 1 0 -8.7)" id="5U1KQX1o1HGXhpPMo6Hzl"  >
<path style="stroke: none; stroke-width: 1; stroke-dasharray: none; stroke-linecap: butt; stroke-dashoffset: 0; stroke-linejoin: miter; stroke-miterlimit: 4; fill: rgb(229,172,46); fill-rule: nonzero; opacity: 1;" vector-effect="non-scaling-stroke"  transform=" translate(-5.5, -5.5)" d="M 0 5.5 C 0 2.46243 2.46243 0 5.5 0 C 8.53757 0 11 2.46243 11 5.5 C 11 8.53757 8.53757 11 5.5 11 C 2.46243 11 0 8.53757 0 5.5 z" stroke-linecap="round" />
</g>
		<g transform="matrix(1 0 0 1 0 -8.7)" id="tnlse0qgbTlLAJbUKFOaA"  >
<path style="stroke: none; stroke-width: 1; stroke-dasharray: none; stroke-linecap: butt; stroke-dashoffset: 0; stroke-linejoin: miter; stroke-miterlimit: 4; fill: rgb(41,72,98); fill-rule: nonzero; opacity: 1;" vector-effect="non-scaling-stroke"  transform=" translate(-4.2, -4.2)" d="M 0 4.2 C 0 1.8804000000000003 1.8804 0 4.2 0 C 6.5196000000000005 0 8.4 1.8804 8.4 4.2 C 8.4 6.5196000000000005 6.5196000000000005 8.4 4.2 8.4 C 1.8804000000000003 8.4 0 6.5196000000000005 0 4.2 z" stroke-linecap="round" />
</g>
</g>
</g>
</svg>