<?xml version="1.0" encoding="UTF-8" standalone="no" ?>
<!DOCTYPE svg PUBLIC "-//W3C//DTD SVG 1.1//EN" "http://www.w3.org/Graphics/SVG/1.1/DTD/svg11.dtd">
<svg xmlns="http://www.w3.org/2000/svg" xmlns:xlink="http://www.w3.org/1999/xlink" version="1.1" width="70" height="25" viewBox="0 0 70 25" xml:space="preserve">
<desc>Created with Fabric.js 4.6.0</desc>
<defs>
</defs>
<g transform="matrix(0 1 -1 0 16.46 12.5)" id="hCqTOiVGQRZdK2kmS5M-Y"  >
<path style="stroke: none; stroke-width: 1; stroke-dasharray: none; stroke-linecap: butt; stroke-dashoffset: 0; stroke-linejoin: miter; stroke-miterlimit: 4; fill: rgb(255,0,0); fill-rule: nonzero; opacity: 1;" vector-effect="non-scaling-stroke"  transform=" translate(-12.5, -12.5)" d="M 12.5 11.803 C 17.450499999999998 11.803 21.844 17.10038 24.1955 25 C 24.6905 22.955379999999998 25 20.81787 25 18.58737 C 25 8.27137 19.43075 -0.000009999999999621423 12.5 -0.000009999999999621423 C 5.56925 -0.000009999999999621423 0 8.36424 0 18.58737 C 0 20.81787 0.30938 23.04837 0.8045 25 C 3.156 17.10038 7.5495 11.803 12.5 11.803 z" stroke-linecap="round" />
</g>
<g transform="matrix(0.85 0 0 1.24 10.85 12.5)" id="0CE0YEKmzgJtF04W_OQ8D"  >
<g style="" vector-effect="non-scaling-stroke"   >
		<g transform="matrix(0 0.97 -0.97 0 0 0)" id="Zi2sAohBYCpbYnb7MHx2i"  >
<path style="stroke: none; stroke-width: 1; stroke-dasharray: none; stroke-linecap: butt; stroke-dashoffset: 0; stroke-linejoin: miter; stroke-miterlimit: 4; fill: rgb(232,171,46); fill-rule: nonzero; opacity: 1;" vector-effect="non-scaling-stroke"  transform=" translate(-48.99, -76.51)" d="M 53.1 77.1 C 52.5 79.69999999999999 49 85.39999999999999 49 85.39999999999999 C 49 85.39999999999999 45.5 79.8 44.9 77.1 C 44.3 74.3 44.8 71.69999999999999 46.199999999999996 70.39999999999999 C 47.49999999999999 68.99999999999999 48.99999999999999 67.19999999999999 48.99999999999999 67.69999999999999 C 48.99999999999999 67.19999999999999 50.49999999999999 68.99999999999999 51.79999999999999 70.39999999999999 C 53.1 71.7 53.7 74.3 53.1 77.1 z" stroke-linecap="round" />
</g>
		<g transform="matrix(0 0.97 -0.97 0 0.02 0.01)" id="9cRyv_ehMi9Ut6CBk-1YU"  >
<path style="stroke: none; stroke-width: 1; stroke-dasharray: none; stroke-linecap: butt; stroke-dashoffset: 0; stroke-linejoin: miter; stroke-miterlimit: 4; fill: rgb(255,0,0); fill-rule: nonzero; opacity: 1;" vector-effect="non-scaling-stroke"  transform=" translate(-49, -76.48)" d="M 50.5 76.9 C 50.3 78.60000000000001 49 82.30000000000001 49 82.30000000000001 C 49 82.30000000000001 47.7 78.60000000000001 47.5 76.9 C 47.3 75.10000000000001 47.5 73.4 48 72.5 C 48.5 71.6 49 70.4 49 70.7 C 49 70.4 49.6 71.60000000000001 50 72.5 C 50.5 73.4 50.7 75 50.5 76.9 z" stroke-linecap="round" />
</g>
</g>
</g>
<g transform="matrix(0 0.97 -0.97 0 13.89 12.5)" id="bZY8YKPgf8-swf30s3xyJ"  >
<path style="stroke: none; stroke-width: 1; stroke-dasharray: none; stroke-linecap: butt; stroke-dashoffset: 0; stroke-linejoin: miter; stroke-miterlimit: 4; fill: rgb(38,131,234); fill-rule: nonzero; opacity: 1;" vector-effect="non-scaling-stroke"  transform=" translate(-6.1, -2.1)" d="M 0 4.2 L 0 0 L 12.2 0 L 12.2 4.2 z" stroke-linecap="round" />
</g>
<g transform="matrix(1 0 0 1.01 41.24 12.5)" id="8U_rB1kCpUN_cVyAjSOyi"  >
<g style="" vector-effect="non-scaling-stroke"   >
		<g transform="matrix(0 1 -1 0 0 0)" id="2FRwNcu4q_A6q0ciGGGKE"  >
<path style="stroke: none; stroke-width: 1; stroke-dasharray: none; stroke-linecap: butt; stroke-dashoffset: 0; stroke-linejoin: miter; stroke-miterlimit: 4; fill: rgb(193,193,193); fill-rule: nonzero; opacity: 1;" vector-effect="non-scaling-stroke"  transform=" translate(-11.9, -28)" d="M 21.11173 13.51392 C 18.78367 7.77784 11.896700000000001 0 11.896700000000001 0 L 11.896700000000001 0 C 11.896700000000001 0 5.009730000000001 7.77773 2.6816700000000004 13.51392 C 0.25666000000000055 19.25 -2.9443799999999998 35.388980000000004 5.39768 56 L 11.8967 56 L 11.8967 56 L 18.395719999999997 56 C 26.737769999999998 35.38886 23.536739999999998 19.25 21.111729999999998 13.513919999999999 z" stroke-linecap="round" />
</g>
		<g transform="matrix(0 0.97 -0.97 0 19.98 0)" id="WKYV3V7HR95MQT2TDPlD4"  >
<path style="stroke: none; stroke-width: 1; stroke-dasharray: none; stroke-linecap: butt; stroke-dashoffset: 0; stroke-linejoin: miter; stroke-miterlimit: 4; fill: rgb(41,72,98); fill-rule: nonzero; opacity: 1;" vector-effect="non-scaling-stroke"  transform=" translate(-49, -22.8)" d="M 59.4 31 C 57.199999999999996 30.5 53.4 30.1 49 30.1 C 44.6 30.1 40.8 30.5 38.6 31 C 38.9 30 39.2 29.2 39.5 28.5 C 41.9 22.7 49 14.6 49 14.6 L 49 14.6 C 49 14.6 56 22.6 58.5 28.5 C 58.8 29.2 59.1 30 59.4 31 z" stroke-linecap="round" />
</g>
		<g transform="matrix(0 0.97 -0.97 0 13.82 0)" id="mn8y18kHSCXWLmH0H5tGj"  >
<path style="stroke: none; stroke-width: 1; stroke-dasharray: none; stroke-linecap: butt; stroke-dashoffset: 0; stroke-linejoin: miter; stroke-miterlimit: 4; fill: rgb(255,0,0); fill-rule: nonzero; opacity: 1;" vector-effect="non-scaling-stroke"  transform=" translate(-49, -29.15)" d="M 59.4 31 C 57.199999999999996 30.5 53.4 30.1 49 30.1 C 44.6 30.1 40.8 30.5 38.6 31 C 38.9 30.1 39.1 29.4 39.4 28.7 C 41.6 27.8 45.1 27.3 49 27.3 C 52.9 27.3 56.3 27.8 58.6 28.7 C 58.9 29.4 59.1 30.1 59.4 31 z" stroke-linecap="round" />
</g>
</g>
</g>
<g transform="matrix(0 0.97 -0.97 0 18.64 12.5)" id="vf0fNAxgasCUYtI5_ZqDP"  >
<path style="stroke: none; stroke-width: 1; stroke-dasharray: none; stroke-linecap: butt; stroke-dashoffset: 0; stroke-linejoin: miter; stroke-miterlimit: 4; fill: rgb(41,72,98); fill-rule: nonzero; opacity: 1;" vector-effect="non-scaling-stroke"  transform=" translate(-1.6, -9.4)" d="M 0 9.4 C 0 4.20852 0.71634 0 1.6 0 C 2.48366 0 3.2 4.20852 3.2 9.4 C 3.2 14.59148 2.4836600000000004 18.8 1.6 18.8 C 0.7163400000000001 18.8 0 14.59148 0 9.4 z" stroke-linecap="round" />
</g>
<g transform="matrix(0 0.97 -0.97 0 43.28 12.5)" id="5U1KQX1o1HGXhpPMo6Hzl"  >
<path style="stroke: none; stroke-width: 1; stroke-dasharray: none; stroke-linecap: butt; stroke-dashoffset: 0; stroke-linejoin: miter; stroke-miterlimit: 4; fill: rgb(229,172,46); fill-rule: nonzero; opacity: 1;" vector-effect="non-scaling-stroke"  transform=" translate(-5.5, -5.5)" d="M 0 5.5 C 0 2.46243 2.46243 0 5.5 0 C 8.53757 0 11 2.46243 11 5.5 C 11 8.53757 8.53757 11 5.5 11 C 2.46243 11 0 8.53757 0 5.5 z" stroke-linecap="round" />
</g>
<g transform="matrix(0 0.97 -0.97 0 43.28 12.5)" id="tnlse0qgbTlLAJbUKFOaA"  >
<path style="stroke: none; stroke-width: 1; stroke-dasharray: none; stroke-linecap: butt; stroke-dashoffset: 0; stroke-linejoin: miter; stroke-miterlimit: 4; fill: rgb(41,72,98); fill-rule: nonzero; opacity: 1;" vector-effect="non-scaling-stroke"  transform=" translate(-4.2, -4.2)" d="M 0 4.2 C 0 1.8804000000000003 1.8804 0 4.2 0 C 6.5196000000000005 0 8.4 1.8804 8.4 4.2 C 8.4 6.5196000000000005 6.5196000000000005 8.4 4.2 8.4 C 1.8804000000000003 8.4 0 6.5196000000000005 0 4.2 z" stroke-linecap="round" />
</g>
<g transform="matrix(1 0 0 1 43.24 2.66)" id="uFdYJAU9LYIO1XM9dQkAW"  >
<path style="stroke: none; stroke-width: 1; stroke-dasharray: none; stroke-linecap: butt; stroke-dashoffset: 0; stroke-linejoin: miter; stroke-miterlimit: 4; fill: rgb(229,172,46); fill-rule: nonzero; opacity: 1;" vector-effect="non-scaling-stroke"  transform=" translate(-5.3, -2.15)" d="M 5.335 4.30843 C 2.39007 4.30843 0.002449999999999619 2.3897000000000004 0 0.022080000000000766 C 4.07403 -0.08834999999999923 7.64324 0.22586000000000075 10.59659 0.7317100000000007 C 10.17416 2.761520000000001 7.979230000000001 4.308420000000001 5.335000000000001 4.308420000000001 z" stroke-linecap="round" />
</g>
<g transform="matrix(1 0 0 1 43.25 2.15)" id="rEBPxdTtgYMnH2FtJTAbW"  >
<path style="stroke: none; stroke-width: 1; stroke-dasharray: none; stroke-linecap: butt; stroke-dashoffset: 0; stroke-linejoin: miter; stroke-miterlimit: 4; fill: rgb(41,72,98); fill-rule: nonzero; opacity: 1;" vector-effect="non-scaling-stroke"  transform=" translate(-4.05, -1.65)" d="M 4.074 3.29443 C 1.8239899999999998 3.29443 0 1.8277200000000002 0 0.01843000000000039 C 0 0.01265000000000039 0.00002 0.006880000000000391 0.00006 0.0011000000000003889 C 3.01328 -0.017269999999999612 5.72858 0.19526000000000038 8.09732 0.5366300000000004 C 7.7884199999999995 2.09968 6.10472 3.29443 4.074 3.29443 z" stroke-linecap="round" />
</g>
<g transform="matrix(1 0 0 1 43.25 22.3)" id="PZvumRSVGo-MMaosqXfhj"  >
<path style="stroke: none; stroke-width: 1; stroke-dasharray: none; stroke-linecap: butt; stroke-dashoffset: 0; stroke-linejoin: miter; stroke-miterlimit: 4; fill: rgb(229,172,46); fill-rule: nonzero; opacity: 1;" vector-effect="non-scaling-stroke"  transform=" translate(-5.31, -2.2)" d="M 5.335 0 C 8.013539999999999 0 10.23104 1.58731 10.61214 3.65596 C 7.65589 4.1632299999999995 4.0816 4.47858 0.0008599999999994168 4.36789 C 0.0002899999999994168 4.34198 -5.831923485799528e-16 4.31602 -5.831923485799528e-16 4.29 C -5.831923485799528e-16 1.9207 2.3885599999999996 0 5.334999999999999 0 z" stroke-linecap="round" />
</g>
<g transform="matrix(1 0 0 1 43.26 22.81)" id="_MUrVhCtaTvw4DXS4RF4a"  >
<path style="stroke: none; stroke-width: 1; stroke-dasharray: none; stroke-linecap: butt; stroke-dashoffset: 0; stroke-linejoin: miter; stroke-miterlimit: 4; fill: rgb(41,72,98); fill-rule: nonzero; opacity: 1;" vector-effect="non-scaling-stroke"  transform=" translate(-4.06, -1.69)" d="M 4.074 0 C 6.142849999999999 0 7.85152 1.24003 8.11326 2.84622 C 5.73955 3.1859 3.0195100000000004 3.39603 0.0018100000000007554 3.37448 C 0.0006100000000007556 3.3417700000000004 7.554720737878995e-16 3.30894 7.554720737878995e-16 3.27599 C 7.554720737878995e-16 1.4667000000000001 1.8239900000000007 -0.000009999999999621423 4.074000000000001 -0.000009999999999621423 z" stroke-linecap="round" />
</g>
</svg>